<?xml version="1.0" encoding="UTF-8"?>
<svg width="57px" height="33px" viewBox="0 0 57 33" version="1.1" xmlns="http://www.w3.org/2000/svg" xmlns:xlink="http://www.w3.org/1999/xlink">
    <title>Group</title>
    <defs>
        <filter id="filter-1">
            <feColorMatrix in="SourceGraphic" type="matrix" values="0 0 0 0 0.000000 0 0 0 0 0.000000 0 0 0 0 0.000000 0 0 0 1.000000 0"></feColorMatrix>
        </filter>
    </defs>
    <g id="Page-1" stroke="none" stroke-width="1" fill="none" fill-rule="evenodd">
        <g filter="url(#filter-1)" id="Group">
            <g transform="translate(0.304464, 0.763781)">
                <path d="M53.4305191,0.380079066 C54.481525,0.380079066 55.3335337,1.49936719 55.3335337,2.88007907 C55.3335337,4.20556247 54.5483225,5.29011774 53.5556428,5.37476139 L53.4305191,5.38007907 L29.5112412,5.38007907 C28.4602352,5.38007907 27.6082266,4.26079094 27.6082266,2.88007907 C27.6082266,1.55459567 28.3934378,0.470040394 29.3861175,0.385396746 L29.5112412,0.380079066 L53.4305191,0.380079066 Z" id="Path" fill="#979797" fill-rule="nonzero"></path>
                <g id="Group-2" transform="translate(11.000000, 16.000000) scale(1, -1) translate(-11.000000, -16.000000) " fill="#979797" fill-rule="nonzero">
                    <path d="M10.7636405,-2.84217094e-14 C12.0891239,-2.84217094e-14 13.1736791,1.03153594 13.2583228,2.33562431 L13.2636405,2.5 L13.2636405,27.3830746 C13.2636405,28.7637865 12.1443523,29.8830746 10.7636405,29.8830746 C9.43815706,29.8830746 8.35360179,28.8515387 8.26895814,27.5474503 L8.26364046,27.3830746 L8.26364046,2.5 C8.26364046,1.11928813 9.38292859,-2.84217094e-14 10.7636405,-2.84217094e-14 Z" id="Path"></path>
                    <path d="M17.4258648,18.9505149 C18.4861458,18.0661114 20.0626241,18.2086884 20.9470275,19.2689694 C21.7929786,20.2831513 21.6993106,21.7696194 20.7616571,22.6709497 L20.6285729,22.7901321 L10.7636405,31.0186865 L0.898707999,22.7901321 C-0.161573028,21.9057287 -0.304149992,20.3292505 0.580253437,19.2689694 C1.42620454,18.2547876 2.90535831,18.0802442 3.96029052,18.840973 L4.10141613,18.9505149 L10.7625364,24.5072192 L17.4258648,18.9505149 Z" id="Path"></path>
                </g>
                <path d="M53.3206916,25.2631537 C54.3716976,25.2631537 55.2237063,26.3824418 55.2237063,27.7631537 C55.2237063,29.0886371 54.4384951,30.1731924 53.4458154,30.257836 L53.3206916,30.2631537 L29.4014138,30.2631537 C28.3504078,30.2631537 27.4983991,29.1438656 27.4983991,27.7631537 C27.4983991,26.4376703 28.2836103,25.353115 29.2762901,25.2684714 L29.4014138,25.2631537 L53.3206916,25.2631537 Z" id="Path" fill="#979797" fill-rule="nonzero" transform="translate(41.361053, 27.763154) scale(1, -1) translate(-41.361053, -27.763154) "></path>
                <path d="M53.3206916,12.8216164 C54.3716976,12.8216164 55.2237063,13.9409045 55.2237063,15.3216164 C55.2237063,16.6470998 54.4384951,17.731655 53.4458154,17.8162987 L53.3206916,17.8216164 L29.4014138,17.8216164 C28.3504078,17.8216164 27.4983991,16.7023283 27.4983991,15.3216164 C27.4983991,13.996133 28.2836103,12.9115777 29.2762901,12.8269341 L29.4014138,12.8216164 L53.3206916,12.8216164 Z" id="Path" fill="#979797" fill-rule="nonzero" transform="translate(41.361053, 15.321616) scale(1, -1) translate(-41.361053, -15.321616) "></path>
            </g>
        </g>
    </g>
</svg>